<?xml version="1.0" encoding="UTF-8" standalone="no"?>
<svg width="1014px" height="342px" viewBox="0 0 1014 342" version="1.1" xmlns="http://www.w3.org/2000/svg" xmlns:xlink="http://www.w3.org/1999/xlink" xmlns:sketch="http://www.bohemiancoding.com/sketch/ns">
    <title>Slice 1</title>
    <description>Created with Sketch (http://www.bohemiancoding.com/sketch)</description>
    <defs></defs>
    <g id="Page-1" stroke="none" stroke-width="1" fill="none" fill-rule="evenodd" sketch:type="MSPage">
        <path d="M11.9202322,73.761839 C8.02860154,75.5502259 8.02457748,78.4479248 11.9202322,80.238161 L156.453579,146.658016 C160.34521,148.446403 166.650766,148.448252 170.546421,146.658016 L315.079768,80.238161 C318.971398,78.4497741 318.975423,75.5520752 315.079768,73.761839 L170.546421,7.34198375 C166.65479,5.55359682 160.349234,5.55174758 156.453579,7.34198375 L11.9202322,73.761839 Z M11.9202322,73.761839" id="Top" fill="#B682B9" sketch:type="MSShapeGroup"></path>
        <path d="M5,92.7905806 L5,255.989434 C5,259.905377 7.77266199,264.28014 11.1958514,265.762011 L153.804149,327.496022 C157.226023,328.977325 160,327.082731 160,323.261049 L160,164.051767 C160,160.231553 157.227338,155.856827 153.804149,154.279189 L11.1958514,88.5556075 C7.77397718,86.9785756 5,88.8731326 5,92.7905806 Z M5,92.7905806" id="Left" fill="#A8CA41" sketch:type="MSShapeGroup"></path>
        <path d="M167,92.7905806 L167,255.989434 C167,259.905377 169.772662,264.28014 173.195851,265.762011 L315.804149,327.496022 C319.226023,328.977325 322,327.082731 322,323.261049 L322,164.051767 C322,160.231553 319.227338,155.856827 315.804149,154.279189 L173.195851,88.5556075 C169.773977,86.9785756 167,88.8731326 167,92.7905806 Z M167,92.7905806" id="Right" fill="#4B6FA5" sketch:type="MSShapeGroup" transform="translate(244.500000, 208.000000) scale(-1, 1) translate(-244.500000, -208.000000) "></path>
        <path d="M155.453579,7.34198375 C159.349234,5.55174758 165.65479,5.55359682 169.546421,7.34198375 L314.079768,73.761839 C317.975423,75.5520752 317.971398,78.4497741 314.079768,80.238161 L169.546421,146.658016 C165.650766,148.448252 159.34521,148.446403 155.453579,146.658016 L10.9202322,80.238161 C7.02457748,78.4479248 7.02860154,75.5502259 10.9202322,73.761839 L155.453579,7.34198375 Z M55.7353605,77 L162.5,126.063362 L269.264639,77 L162.5,27.9366382 L55.7353605,77 Z M55.7353605,77" id="Top-copy" fill-opacity="0.253245634" fill="#000000" sketch:type="MSShapeGroup"></path>
        <path d="M322,255.989434 C322,259.905377 319.227338,264.28014 315.804149,265.762011 L173.195851,327.496022 C169.773977,328.977325 167,327.082731 167,323.261049 L167,164.051767 C167,160.231553 169.772662,155.856827 173.195851,154.279189 L315.804149,88.5556075 C319.226023,86.9785756 322,88.8731326 322,92.7905806 L322,255.989434 Z M188.769663,297.132346 L300.230337,248.881897 L300.230337,119.604474 L188.769663,170.973117 L188.769663,297.132346 Z M188.769663,297.132346" id="Right-copy" fill-opacity="0.253245634" fill="#000000" sketch:type="MSShapeGroup"></path>
        <path d="M11.1958514,88.5556075 L153.804149,154.279189 C157.227338,155.856827 160,160.231553 160,164.051767 L160,323.261049 C160,327.082731 157.226023,328.977325 153.804149,327.496022 L11.1958514,265.762011 C7.77266199,264.28014 5,259.905377 5,255.989434 L5,92.7905806 C5,88.8731326 7.77397718,86.9785756 11.1958514,88.5556075 Z M26.7696629,119.604474 L26.7696629,248.881897 L138.230337,297.132346 L138.230337,170.973117 L26.7696629,119.604474 Z M26.7696629,119.604474" id="Left-copy" fill-opacity="0.253245634" fill="#000000" sketch:type="MSShapeGroup"></path>
        <g id="random-+-ORACLE" sketch:type="MSLayerGroup" transform="translate(425.000000, 33.000000)" fill="#000000">
            <path d="M7.2,114 L27.52,114 L27.52,81.68 C27.52,76.88 28,72.4 29.28,68.4 C33.12,56.24 42.88,51.28 51.52,51.28 C54.24,51.28 56.32,51.6 56.32,51.6 L56.32,31.6 C56.32,31.6 54.56,31.28 52.64,31.28 C40.16,31.28 30.4,40.56 26.72,52.24 L26.4,52.24 C26.4,52.24 26.72,49.52 26.72,46.48 L26.72,32.4 L7.2,32.4 L7.2,114 Z M63.2,90.48 C63.2,106.8 76.32,115.92 90.88,115.92 C109.44,115.92 115.84,101.52 115.68,101.52 L116,101.52 C116,101.52 115.68,104.08 115.68,107.28 L115.68,114 L134.4,114 L134.4,62.96 C134.4,42.32 121.92,30.48 100.48,30.48 C81.12,30.48 68.48,40.56 68.48,40.56 L76.16,55.12 C76.16,55.12 86.88,47.28 98.56,47.28 C107.52,47.28 114.24,50.96 114.24,61.68 L114.24,62.8 L111.52,62.8 C98.24,62.8 63.2,64.56 63.2,90.48 C63.2,90.48 63.2,64.56 63.2,90.48 Z M83.68,89.52 C83.68,78.16 100.48,76.72 110.88,76.72 L114.4,76.72 L114.4,78.64 C114.4,88.56 106.72,100.08 96,100.08 C87.68,100.08 83.68,94.96 83.68,89.52 C83.68,89.52 83.68,94.96 83.68,89.52 Z M155.52,114 L175.84,114 L175.84,76.56 C175.84,72.72 176.16,69.04 177.28,65.68 C180.32,55.92 188.32,49.04 199.2,49.04 C209.6,49.04 212.16,55.76 212.16,65.68 L212.16,114 L232.32,114 L232.32,61.52 C232.32,39.92 222.08,30.48 204,30.48 C187.52,30.48 178.56,40.56 175.04,47.44 L174.72,47.44 C174.72,47.44 175.04,44.88 175.04,41.84 L175.04,32.4 L155.52,32.4 L155.52,114 Z M248,73.2 C248,98.48 262.08,115.92 284.16,115.92 C302.88,115.92 309.76,102 309.76,102 L310.08,102 C310.08,102 309.76,104.24 309.76,107.28 L309.76,114 L328.96,114 L328.96,0.4 L308.64,0.4 L308.64,36.24 C308.64,38.8 308.8,40.88 308.8,40.88 L308.48,40.88 C308.48,40.88 302.88,30.48 284.96,30.48 C263.36,30.48 248,47.28 248,73.2 C248,73.2 248,47.28 248,73.2 Z M268.48,73.2 C268.48,57.04 277.76,47.92 288.96,47.92 C302.56,47.92 309.28,60.4 309.28,73.04 C309.28,91.12 299.36,98.8 288.8,98.8 C276.8,98.8 268.48,88.72 268.48,73.2 C268.48,73.2 268.48,88.72 268.48,73.2 Z M345.28,73.2 C345.28,98.32 365.28,115.92 390.24,115.92 C415.04,115.92 435.04,98.32 435.04,73.2 C435.04,48.24 415.04,30.48 390.08,30.48 C365.28,30.48 345.28,48.24 345.28,73.2 C345.28,73.2 345.28,48.24 345.28,73.2 Z M365.92,73.2 C365.92,58.16 376.96,47.76 390.24,47.76 C403.36,47.76 414.4,58.16 414.4,73.2 C414.4,88.4 403.36,98.64 390.24,98.64 C376.96,98.64 365.92,88.4 365.92,73.2 C365.92,73.2 365.92,88.4 365.92,73.2 Z M451.36,114 L471.68,114 L471.68,78.16 C471.68,74.48 471.84,70.8 472.64,67.76 C475.2,57.36 482.08,49.04 492.64,49.04 C502.24,49.04 503.68,56.56 503.68,65.36 L503.68,114 L524,114 L524,78.16 C524,74.32 524.16,70.8 524.96,67.6 C527.36,57.36 534.24,49.04 544.64,49.04 C554.08,49.04 555.84,56.08 555.84,65.36 L555.84,114 L576.16,114 L576.16,61.52 C576.16,40.08 566.4,30.48 549.44,30.48 C536.64,30.48 526.08,38.48 521.6,47.28 L521.28,47.28 C517.92,36.24 509.92,30.48 497.44,30.48 C484.64,30.48 474.88,39.44 470.88,47.44 L470.56,47.44 C470.56,47.44 470.88,44.88 470.88,41.84 L470.88,32.4 L451.36,32.4 L451.36,114 Z M451.36,114" id="random" sketch:type="MSShapeGroup"></path>
            <path d="M0.314,199.56 C0.314,231.746 24.646,256.848 56.832,256.848 C89.018,256.848 113.35,231.746 113.35,199.56 C113.35,168.298 89.018,143.812 56.832,143.812 C24.646,143.812 0.314,168.298 0.314,199.56 C0.314,199.56 0.314,168.298 0.314,199.56 Z M20.796,199.56 C20.796,178 36.812,161.984 56.832,161.984 C76.852,161.984 92.868,178 92.868,199.56 C92.868,222.044 76.852,238.676 56.832,238.676 C36.812,238.676 20.796,222.044 20.796,199.56 C20.796,199.56 20.796,222.044 20.796,199.56 Z M131.034,255 L150.9,255 L150.9,214.19 L169.996,214.19 L191.71,255 L213.886,255 L191.402,214.19 C189.246,210.34 187.706,208.8 187.706,208.8 L187.706,208.492 C199.256,203.872 206.186,191.706 206.186,178.616 C206.186,164.14 199.256,153.668 188.322,148.74 C183.548,146.584 178.158,145.66 166.3,145.66 L131.034,145.66 L131.034,255 Z M150.9,196.942 L150.9,162.754 L165.992,162.754 C181.546,162.754 186.012,169.222 186.012,179.694 C186.012,190.628 179.39,196.942 168.764,196.942 L150.9,196.942 Z M293.478,255 L313.96,255 L275.46,145.66 L254.67,145.66 L216.17,255 L236.652,255 L245.892,226.972 L284.238,226.972 L293.478,255 Z M265.296,164.602 C265.296,164.602 267.606,175.382 269.608,181.542 L279.31,210.802 L250.666,210.802 L260.368,181.542 C262.524,175.382 264.988,164.602 264.988,164.602 L265.296,164.602 Z M317.322,199.868 C317.322,232.054 340.422,256.848 373.84,256.848 C401.714,256.848 416.806,239.138 416.806,239.138 L406.334,224.816 C406.334,224.816 393.552,238.676 374.61,238.676 C351.818,238.676 337.804,220.35 337.804,199.56 C337.804,179.232 351.356,161.984 374.456,161.984 C391.858,161.984 404.332,173.534 404.332,173.534 L413.88,158.75 C413.88,158.75 400.174,143.812 373.532,143.812 C341.346,143.812 317.322,168.144 317.322,199.868 C317.322,199.868 317.322,168.144 317.322,199.868 Z M432.642,255 L499.786,255 L499.786,237.906 L452.508,237.906 L452.508,145.66 L432.642,145.66 L432.642,255 Z M513.158,255 L581.072,255 L581.072,237.906 L533.024,237.906 L533.024,208.492 L569.83,208.492 L569.83,191.398 L533.024,191.398 L533.024,162.754 L578.608,162.754 L578.608,145.66 L513.158,145.66 L513.158,255 Z M513.158,255" id="ORACLE" sketch:type="MSShapeGroup"></path>
        </g>
    </g>
</svg>